<?xml version="1.0" standalone="no"?>
<!DOCTYPE svg PUBLIC "-//W3C//DTD SVG 20010904//EN"
 "http://www.w3.org/TR/2001/REC-SVG-20010904/DTD/svg10.dtd">
<svg version="1.0" xmlns="http://www.w3.org/2000/svg"
 width="512.000000pt" height="512.000000pt" viewBox="0 0 512.000000 512.000000"
 preserveAspectRatio="xMidYMid meet">

<g transform="translate(0.000000,512.000000) scale(0.100000,-0.100000)"
fill="#000000" stroke="none">
<path d="M1634 5110 c-12 -4 -31 -21 -43 -36 -21 -26 -21 -33 -21 -425 0 -220
-3 -399 -6 -399 -3 0 -27 7 -54 16 -75 24 -199 16 -272 -18 -78 -36 -152 -107
-189 -184 -29 -58 -36 -99 -110 -616 -104 -725 -104 -706 -20 -1238 34 -212
63 -394 66 -406 4 -18 -26 -38 -238 -155 -133 -73 -252 -144 -265 -156 l-22
-22 0 -703 c1 -537 4 -707 13 -718 21 -28 61 -50 88 -50 15 0 277 103 584 230
l557 230 1440 0 c1040 0 1445 3 1461 11 12 6 30 21 39 33 17 20 18 155 18
2285 l0 2263 -34 34 -34 34 -1469 -1 c-807 0 -1478 -4 -1489 -9z m2806 -1810
l0 -1600 -1325 0 -1325 0 0 1600 0 1600 1325 0 1325 0 0 -1600z m-2963 743
c19 -9 47 -34 61 -56 l27 -41 3 -1651 2 -1651 -427 -177 c-236 -97 -436 -179
-446 -183 -16 -6 -17 22 -15 537 l3 542 237 131 c246 136 282 161 292 202 5
19 -74 558 -130 884 -3 19 -6 93 -5 165 0 107 14 223 76 655 41 289 80 539 85
556 11 31 48 72 85 92 30 17 112 14 152 -5z m2963 -2963 l0 -400 -1325 0
-1325 0 0 400 0 400 1325 0 1325 0 0 -400z"/>
<path d="M3074 3530 c-12 -4 -31 -21 -43 -36 -19 -24 -21 -39 -21 -170 0 -157
7 -187 51 -210 66 -34 141 -2 159 68 17 60 9 276 -10 306 -27 41 -90 61 -136
42z"/>
<path d="M3041 2869 c-58 -58 -35 -153 44 -179 77 -25 160 58 135 135 -26 79
-121 102 -179 44z"/>
</g>
</svg>
