<?xml version="1.0" standalone="no"?>
<!DOCTYPE svg PUBLIC "-//W3C//DTD SVG 20010904//EN"
 "http://www.w3.org/TR/2001/REC-SVG-20010904/DTD/svg10.dtd">
<svg version="1.0" xmlns="http://www.w3.org/2000/svg"
 width="512.000000pt" height="512.000000pt" viewBox="0 0 512.000000 512.000000"
 preserveAspectRatio="xMidYMid meet">

<g transform="translate(0.000000,512.000000) scale(0.100000,-0.100000)"
fill="#000000" stroke="none">
<path d="M700 4940 c-58 -21 -142 -74 -178 -113 -42 -45 -91 -141 -106 -207
-13 -55 -16 -136 -16 -399 l0 -331 -22 0 c-40 0 -141 -55 -191 -104 -29 -27
-61 -74 -80 -114 l-32 -67 -3 -743 -3 -743 166 -295 165 -296 0 -323 c0 -177
5 -346 10 -376 36 -189 189 -334 380 -359 43 -5 428 -10 893 -10 l819 0 -4
-141 c-3 -130 -2 -142 16 -155 29 -21 2492 -21 2521 0 18 13 19 26 17 167 -8
454 -70 655 -260 830 -118 109 -320 212 -557 284 -116 36 -127 53 -123 185 l3
95 56 75 c110 146 160 279 163 435 2 75 8 115 25 159 74 198 -22 393 -282 573
-38 26 -40 26 -95 14 -112 -26 -104 -27 -140 22 l-32 45 0 759 c0 824 1 813
-56 925 -37 73 -117 149 -199 189 l-70 34 -1365 2 c-1338 2 -1366 2 -1420 -17z
m2785 -114 c71 -28 156 -115 183 -189 17 -46 22 -80 22 -162 l0 -105 -1586 0
-1586 0 4 118 c3 91 8 127 24 163 41 89 124 159 223 185 36 10 339 12 1356 11
1267 -2 1312 -3 1360 -21z m203 -1177 l-3 -601 -55 -17 c-30 -10 -66 -23 -78
-30 -47 -25 -104 -86 -143 -153 -22 -37 -42 -68 -45 -68 -3 0 -20 11 -38 25
-45 35 -71 32 -111 -12 -78 -85 -125 -214 -125 -340 0 -121 43 -213 127 -270
35 -24 42 -35 48 -73 12 -79 69 -214 128 -301 62 -92 79 -157 66 -248 -8 -61
-37 -83 -159 -120 -161 -50 -333 -128 -436 -197 l-96 -64 -1124 0 -1124 0 0
172 0 171 165 297 165 296 0 725 c0 802 2 781 -65 884 -48 75 -126 132 -220
160 l-40 12 -3 177 -2 176 1585 0 1585 0 -2 -601z m-3118 110 c97 -44 160
-138 160 -241 l0 -58 -271 0 -272 0 5 70 c6 81 38 143 99 192 74 60 194 76
279 37z m165 -994 l0 -570 -272 -3 -273 -2 0 575 0 575 273 -2 272 -3 0 -570z
m3044 125 c19 -29 44 -53 57 -56 14 -4 59 3 101 15 l77 21 53 -42 c72 -55 146
-138 172 -190 23 -49 36 -119 27 -144 -6 -15 -9 -15 -29 3 -12 12 -41 30 -65
42 -39 20 -49 21 -118 11 -118 -16 -269 -12 -400 11 -170 29 -242 13 -318 -72
-41 -46 -76 -119 -76 -161 0 -27 -15 -22 -30 10 -37 77 -29 196 21 293 l29 59
30 -15 c74 -38 134 -8 189 94 26 50 109 140 130 141 3 1 29 7 56 15 28 7 52
14 55 14 3 0 20 -22 39 -49z m-79 -455 c108 -17 231 -19 339 -5 66 9 77 8 106
-10 45 -28 68 -81 73 -165 11 -201 -143 -453 -333 -546 -88 -43 -131 -44 -209
-4 -114 57 -211 176 -269 329 -27 72 -31 93 -31 191 -1 100 1 114 24 154 14
25 40 52 60 63 39 21 70 21 240 -7z m-3010 -360 c0 -10 -224 -405 -229 -405
-10 0 -229 398 -223 404 7 7 452 8 452 1z m3336 -625 l28 -51 -140 -140 -139
-139 -137 137 -137 136 26 34 c33 43 52 98 53 151 0 23 2 42 4 42 3 0 20 -9
38 -19 18 -11 59 -27 92 -36 55 -16 63 -16 120 0 33 9 81 27 106 40 l45 23 7
-64 c4 -40 16 -82 34 -114z m-453 -295 c116 -118 189 -186 202 -186 13 0 85
67 202 187 209 214 173 200 343 137 214 -79 378 -182 458 -286 106 -138 140
-273 157 -619 l6 -118 -180 0 -179 0 -4 141 c-3 126 -5 142 -22 155 -26 19
-55 18 -78 -3 -16 -14 -18 -33 -18 -155 l0 -138 -690 0 -690 0 0 137 c0 113
-3 140 -17 155 -21 24 -58 23 -83 -2 -18 -18 -20 -33 -20 -155 l0 -135 -175 0
-175 0 0 33 c1 79 21 334 31 395 52 302 211 457 624 608 50 18 98 33 108 34
11 0 92 -75 200 -185z m-925 -102 c-2 -5 -22 -46 -45 -93 -44 -89 -78 -211
-89 -318 l-7 -63 -871 3 -871 3 -56 28 c-67 32 -132 99 -162 165 -17 37 -22
72 -25 165 l-4 117 1067 0 c587 0 1065 -3 1063 -7z"/>
<path d="M1584 4111 c-23 -14 -96 -132 -318 -517 -184 -318 -290 -512 -293
-535 -7 -47 21 -106 61 -130 29 -18 61 -19 624 -19 545 0 596 1 623 17 39 23
73 94 65 135 -3 17 -136 256 -294 531 -216 377 -294 504 -317 518 -39 25 -111
25 -151 0z m368 -580 c154 -266 277 -490 274 -497 -4 -12 -98 -14 -566 -14
-489 0 -561 2 -566 15 -4 9 99 197 252 462 303 527 302 525 316 521 6 -2 136
-221 290 -487z"/>
<path d="M1617 3672 c-14 -16 -17 -43 -17 -164 0 -128 2 -147 18 -161 25 -23
58 -21 82 3 18 18 20 33 20 158 0 108 -3 142 -16 160 -19 27 -64 29 -87 4z"/>
<path d="M1617 3222 c-35 -39 -9 -102 41 -102 28 0 62 34 62 60 0 27 -35 60
-63 60 -13 0 -31 -8 -40 -18z"/>
<path d="M2456 3764 c-18 -18 -20 -47 -6 -75 10 -18 26 -19 489 -19 522 0 504
-2 504 57 0 53 1 53 -504 53 -412 0 -469 -2 -483 -16z"/>
<path d="M2470 3357 c-31 -16 -39 -61 -14 -88 16 -18 35 -19 329 -19 289 0
313 1 328 18 21 23 22 52 3 78 -14 18 -31 19 -318 22 -231 2 -309 -1 -328 -11z"/>
<path d="M1591 2762 c-30 -16 -76 -90 -323 -518 -159 -274 -291 -509 -294
-522 -9 -33 4 -86 28 -117 43 -55 39 -55 660 -55 535 0 576 1 608 18 46 24 83
94 75 141 -6 32 -549 985 -584 1025 -42 47 -112 59 -170 28z m358 -578 c150
-261 274 -483 275 -492 1 -16 -41 -17 -562 -20 -478 -2 -563 0 -568 12 -8 21
546 976 565 976 10 0 116 -175 290 -476z"/>
<path d="M1617 2322 c-14 -16 -17 -43 -17 -165 0 -161 6 -177 60 -177 51 0 60
27 60 182 0 125 -2 140 -20 158 -25 25 -62 26 -83 2z"/>
<path d="M1620 1870 c-40 -40 -14 -100 43 -100 53 0 73 85 27 110 -28 15 -48
12 -70 -10z"/>
<path d="M2456 2404 c-18 -18 -20 -47 -6 -75 10 -18 24 -19 249 -19 218 0 239
2 254 18 22 24 21 55 -1 75 -16 15 -49 17 -250 17 -196 0 -233 -2 -246 -16z"/>
<path d="M2470 1997 c-31 -16 -39 -61 -14 -88 16 -18 35 -19 329 -19 289 0
313 1 328 18 21 23 22 52 3 78 -14 18 -31 19 -318 22 -231 2 -309 -1 -328 -11z"/>
</g>
</svg>
