<svg width="329" height="45" viewBox="0 0 329 45" fill="none" xmlns="http://www.w3.org/2000/svg">
<path d="M10.3139 44H0.427557L15.4915 0.363635H27.3807L42.4233 44H32.5369L21.6065 10.3352H21.2656L10.3139 44ZM9.69602 26.848H33.0483V34.0497H9.69602V26.848ZM56.5817 0.363635V44H47.505V0.363635H56.5817ZM78.7674 44.6392C75.4009 44.6392 72.5032 43.9574 70.0742 42.5938C67.6594 41.2159 65.7987 39.2699 64.4918 36.7557C63.185 34.2273 62.5316 31.2372 62.5316 27.7855C62.5316 24.419 63.185 21.4645 64.4918 18.9219C65.7987 16.3793 67.6381 14.3977 70.0103 12.9773C72.3967 11.5568 75.195 10.8466 78.4052 10.8466C80.5643 10.8466 82.5742 11.1946 84.435 11.8906C86.31 12.5724 87.9435 13.6023 89.3356 14.9801C90.7418 16.358 91.8356 18.0909 92.6168 20.179C93.3981 22.2528 93.7887 24.6818 93.7887 27.4659V29.9588H66.1538V24.3338H85.2447C85.2447 23.027 84.9606 21.8693 84.3924 20.8608C83.8242 19.8523 83.0359 19.0639 82.0273 18.4957C81.033 17.9134 79.8754 17.6222 78.5543 17.6222C77.1765 17.6222 75.9549 17.9418 74.8896 18.581C73.8384 19.206 73.0146 20.0511 72.418 21.1165C71.8214 22.1676 71.516 23.3395 71.5018 24.6321V29.9801C71.5018 31.5994 71.8001 32.9986 72.3967 34.1776C73.0075 35.3565 73.8668 36.2656 74.9748 36.9048C76.0827 37.544 77.3967 37.8636 78.9165 37.8636C79.9251 37.8636 80.8484 37.7216 81.6864 37.4375C82.5245 37.1534 83.2418 36.7273 83.8384 36.1591C84.435 35.5909 84.8896 34.8949 85.2021 34.071L93.5969 34.625C93.1708 36.642 92.2972 38.4034 90.9762 39.9091C89.6694 41.4006 87.979 42.5653 85.9052 43.4034C83.8455 44.2273 81.4663 44.6392 78.7674 44.6392ZM99.712 44V11.2727H108.512V16.983H108.853C109.449 14.9517 110.451 13.4176 111.857 12.3807C113.263 11.3295 114.882 10.804 116.715 10.804C117.169 10.804 117.659 10.8324 118.185 10.8892C118.711 10.946 119.172 11.0241 119.57 11.1236V19.1776C119.144 19.0497 118.554 18.9361 117.801 18.8366C117.049 18.7372 116.36 18.6875 115.735 18.6875C114.4 18.6875 113.206 18.9787 112.155 19.5611C111.118 20.1293 110.294 20.9247 109.684 21.9474C109.087 22.9702 108.789 24.1491 108.789 25.4844V44H99.712ZM143.311 11.2727V18.0909H123.602V11.2727H143.311ZM128.077 3.43182H137.153V33.9432C137.153 34.7812 137.281 35.4347 137.537 35.9034C137.793 36.358 138.148 36.6776 138.602 36.8622C139.071 37.0469 139.611 37.1392 140.222 37.1392C140.648 37.1392 141.074 37.1037 141.5 37.0327C141.926 36.9474 142.253 36.8835 142.48 36.8409L143.908 43.5952C143.453 43.7372 142.814 43.9006 141.99 44.0852C141.166 44.2841 140.165 44.4048 138.986 44.4474C136.798 44.5327 134.881 44.2415 133.233 43.5739C131.599 42.9062 130.328 41.8693 129.419 40.4631C128.51 39.0568 128.063 37.2812 128.077 35.1364V3.43182ZM163.281 44V0.363635H180.497C183.806 0.363635 186.626 0.995738 188.956 2.25994C191.285 3.50994 193.061 5.25 194.282 7.48011C195.518 9.69602 196.136 12.2528 196.136 15.1506C196.136 18.0483 195.511 20.6051 194.261 22.821C193.011 25.0369 191.2 26.7628 188.828 27.9986C186.47 29.2344 183.615 29.8523 180.262 29.8523H169.289V22.4588H178.771C180.547 22.4588 182.01 22.1534 183.16 21.5426C184.325 20.9176 185.191 20.0582 185.76 18.9645C186.342 17.8565 186.633 16.5852 186.633 15.1506C186.633 13.7017 186.342 12.4375 185.76 11.358C185.191 10.2642 184.325 9.41903 183.16 8.82244C181.995 8.21165 180.518 7.90625 178.728 7.90625H172.507V44H163.281ZM210.412 44.6179C208.324 44.6179 206.463 44.2557 204.829 43.5312C203.196 42.7926 201.903 41.706 200.951 40.2713C200.014 38.8224 199.545 37.0185 199.545 34.8594C199.545 33.0412 199.879 31.5142 200.547 30.2784C201.214 29.0426 202.123 28.0483 203.274 27.2955C204.424 26.5426 205.731 25.9744 207.194 25.5909C208.672 25.2074 210.22 24.9375 211.839 24.7812C213.743 24.5824 215.277 24.3977 216.441 24.2273C217.606 24.0426 218.451 23.7727 218.977 23.4176C219.502 23.0625 219.765 22.5369 219.765 21.8409V21.7131C219.765 20.3636 219.339 19.3196 218.487 18.581C217.649 17.8423 216.456 17.473 214.907 17.473C213.274 17.473 211.974 17.8352 211.008 18.5597C210.042 19.2699 209.403 20.1648 209.091 21.2443L200.696 20.5625C201.122 18.5739 201.96 16.8551 203.21 15.4062C204.46 13.9432 206.072 12.821 208.047 12.0398C210.035 11.2443 212.336 10.8466 214.95 10.8466C216.768 10.8466 218.508 11.0597 220.17 11.4858C221.846 11.9119 223.331 12.5724 224.623 13.4673C225.93 14.3622 226.96 15.5128 227.713 16.919C228.466 18.3111 228.842 19.9801 228.842 21.9261V44H220.234V39.4616H219.978C219.453 40.4844 218.75 41.3864 217.869 42.1676C216.988 42.9347 215.93 43.5384 214.694 43.9787C213.458 44.4048 212.031 44.6179 210.412 44.6179ZM213.011 38.3537C214.346 38.3537 215.525 38.0909 216.548 37.5653C217.571 37.0256 218.373 36.3011 218.956 35.392C219.538 34.483 219.829 33.4531 219.829 32.3026V28.8295C219.545 29.0142 219.154 29.1847 218.657 29.3409C218.174 29.483 217.627 29.6179 217.017 29.7457C216.406 29.8594 215.795 29.9659 215.184 30.0653C214.574 30.1506 214.02 30.2287 213.522 30.2997C212.457 30.456 211.527 30.7045 210.731 31.0455C209.936 31.3864 209.318 31.848 208.877 32.4304C208.437 32.9986 208.217 33.7088 208.217 34.5611C208.217 35.7969 208.664 36.7415 209.559 37.3949C210.468 38.0341 211.619 38.3537 213.011 38.3537ZM253.292 11.2727V18.0909H233.583V11.2727H253.292ZM238.057 3.43182H247.134V33.9432C247.134 34.7812 247.262 35.4347 247.517 35.9034C247.773 36.358 248.128 36.6776 248.583 36.8622C249.051 37.0469 249.591 37.1392 250.202 37.1392C250.628 37.1392 251.054 37.1037 251.48 37.0327C251.907 36.9474 252.233 36.8835 252.461 36.8409L253.888 43.5952C253.434 43.7372 252.794 43.9006 251.971 44.0852C251.147 44.2841 250.145 44.4048 248.966 44.4474C246.779 44.5327 244.861 44.2415 243.213 43.5739C241.58 42.9062 240.309 41.8693 239.4 40.4631C238.49 39.0568 238.043 37.2812 238.057 35.1364V3.43182ZM259.204 44V11.2727H268.004V16.983H268.345C268.941 14.9517 269.943 13.4176 271.349 12.3807C272.755 11.3295 274.375 10.804 276.207 10.804C276.662 10.804 277.152 10.8324 277.677 10.8892C278.203 10.946 278.664 11.0241 279.062 11.1236V19.1776C278.636 19.0497 278.047 18.9361 277.294 18.8366C276.541 18.7372 275.852 18.6875 275.227 18.6875C273.892 18.6875 272.699 18.9787 271.647 19.5611C270.61 20.1293 269.787 20.9247 269.176 21.9474C268.579 22.9702 268.281 24.1491 268.281 25.4844V44H259.204ZM297.018 44.6392C293.709 44.6392 290.847 43.9361 288.432 42.5298C286.031 41.1094 284.178 39.1349 282.871 36.6065C281.564 34.0639 280.911 31.1165 280.911 27.7642C280.911 24.3835 281.564 21.429 282.871 18.9006C284.178 16.358 286.031 14.3835 288.432 12.9773C290.847 11.5568 293.709 10.8466 297.018 10.8466C300.328 10.8466 303.183 11.5568 305.584 12.9773C307.999 14.3835 309.859 16.358 311.166 18.9006C312.473 21.429 313.126 24.3835 313.126 27.7642C313.126 31.1165 312.473 34.0639 311.166 36.6065C309.859 39.1349 307.999 41.1094 305.584 42.5298C303.183 43.9361 300.328 44.6392 297.018 44.6392ZM297.061 37.608C298.567 37.608 299.824 37.1818 300.832 36.3295C301.841 35.4631 302.601 34.2841 303.112 32.7926C303.638 31.3011 303.901 29.6037 303.901 27.7003C303.901 25.7969 303.638 24.0994 303.112 22.608C302.601 21.1165 301.841 19.9375 300.832 19.071C299.824 18.2045 298.567 17.7713 297.061 17.7713C295.541 17.7713 294.263 18.2045 293.226 19.071C292.203 19.9375 291.429 21.1165 290.903 22.608C290.392 24.0994 290.136 25.7969 290.136 27.7003C290.136 29.6037 290.392 31.3011 290.903 32.7926C291.429 34.2841 292.203 35.4631 293.226 36.3295C294.263 37.1818 295.541 37.608 297.061 37.608ZM328.105 0.363635V44H319.028V0.363635H328.105Z" fill="#00ACCF"/>
</svg>
